/* XPM */
static char *_b15acb020d442e2d106d98c014e6c19luG0ykmlZRDWuIXi[] = {
/* columns rows colors chars-per-pixel */
"64 64 6 1 ",
"  c None",
". c #3F2631",
"X c #BD6C4A",
"o c #EAA56C",
"O c #8B9BB4",
"+ c #C0CBDC",
/* pixels */
"                ................................                ",
"                ................................                ",
"                ................................                ",
"                ................................                ",
"            ........................................            ",
"            ........................................            ",
"            ........................................            ",
"            ........................................            ",
"        ............++++++++++++++++++++++++............        ",
"        ............++++++++++++++++++++++++............        ",
"        ............++++++++++++++++++++++++............        ",
"        ............++++++++++++++++++++++++............        ",
"        ........++++++++XXXXXXXXXXXXXXXX++++++++........        ",
"        ........++++++++XXXXXXXXXXXXXXXX++++++++........        ",
"        ........++++++++XXXXXXXXXXXXXXXX++++++++........        ",
"        ........++++++++XXXXXXXXXXXXXXXX++++++++........        ",
"    ............++++XXXXooooooooooooooooXXXX++++............    ",
"    ............++++XXXXooooooooooooooooXXXX++++............    ",
"    ............++++XXXXooooooooooooooooXXXX++++............    ",
"    ............++++XXXXooooooooooooooooXXXX++++............    ",
"    ........OOOO++++oooooooooooooooooooooooo++++OOOO........    ",
"    ........OOOO++++oooooooooooooooooooooooo++++OOOO........    ",
"    ........OOOO++++oooooooooooooooooooooooo++++OOOO........    ",
"    ........OOOO++++oooooooooooooooooooooooo++++OOOO........    ",
"    ........OOOO++++ooooooooooooooooXXXXoooo++++OOOO........    ",
"    ........OOOO++++ooooooooooooooooXXXXoooo++++OOOO........    ",
"    ........OOOO++++ooooooooooooooooXXXXoooo++++OOOO........    ",
"    ........OOOO++++ooooooooooooooooXXXXoooo++++OOOO........    ",
"    ........OOOO++++++++oooooooooooooooo++++++++OOOO........    ",
"    ........OOOO++++++++oooooooooooooooo++++++++OOOO........    ",
"    ........OOOO++++++++oooooooooooooooo++++++++OOOO........    ",
"    ........OOOO++++++++oooooooooooooooo++++++++OOOO........    ",
"    ........OOOOXXXX++++++++++++++++++++++++XXXXOOOO........    ",
"    ........OOOOXXXX++++++++++++++++++++++++XXXXOOOO........    ",
"    ........OOOOXXXX++++++++++++++++++++++++XXXXOOOO........    ",
"    ........OOOOXXXX++++++++++++++++++++++++XXXXOOOO........    ",
"    ........XXXX++++XXXXXXXXooooooooXXXXXXXX++++XXXX........    ",
"    ........XXXX++++XXXXXXXXooooooooXXXXXXXX++++XXXX........    ",
"    ........XXXX++++XXXXXXXXooooooooXXXXXXXX++++XXXX........    ",
"    ........XXXX++++XXXXXXXXooooooooXXXXXXXX++++XXXX........    ",
"    ........OOOOXXXX++++++++++++++++++++++++XXXXOOOO........    ",
"    ........OOOOXXXX++++++++++++++++++++++++XXXXOOOO........    ",
"    ........OOOOXXXX++++++++++++++++++++++++XXXXOOOO........    ",
"    ........OOOOXXXX++++++++++++++++++++++++XXXXOOOO........    ",
"    ........OOOOXXXXXXXXXXXXooooooooXXXXXXXXXXXXOOOO........    ",
"    ........OOOOXXXXXXXXXXXXooooooooXXXXXXXXXXXXOOOO........    ",
"    ........OOOOXXXXXXXXXXXXooooooooXXXXXXXXXXXXOOOO........    ",
"    ........OOOOXXXXXXXXXXXXooooooooXXXXXXXXXXXXOOOO........    ",
"    ........XXXX++++XXXXXXXXooooooooXXXXXXXX++++XXXX........    ",
"    ........XXXX++++XXXXXXXXooooooooXXXXXXXX++++XXXX........    ",
"    ........XXXX++++XXXXXXXXooooooooXXXXXXXX++++XXXX........    ",
"    ........XXXX++++XXXXXXXXooooooooXXXXXXXX++++XXXX........    ",
"    ............XXXX++++++++++++++++++++++++XXXX............    ",
"    ............XXXX++++++++++++++++++++++++XXXX............    ",
"    ............XXXX++++++++++++++++++++++++XXXX............    ",
"    ............XXXX++++++++++++++++++++++++XXXX............    ",
"        ........XXXXXXXXXXXXooooooooXXXXXXXXXXXX........        ",
"        ........XXXXXXXXXXXXooooooooXXXXXXXXXXXX........        ",
"        ........XXXXXXXXXXXXooooooooXXXXXXXXXXXX........        ",
"        ........XXXXXXXXXXXXooooooooXXXXXXXXXXXX........        ",
"                    XXXXXXXXooooooooXXXXXXXX                    ",
"                    XXXXXXXXooooooooXXXXXXXX                    ",
"                    XXXXXXXXooooooooXXXXXXXX                    ",
"                    XXXXXXXXooooooooXXXXXXXX                    "
};
