/* XPM */
static char *_bd5223f8f094b67e6362d605b1d0913izmOyOH9C1kYZ1Tc[] = {
/* columns rows colors chars-per-pixel */
"64 64 9 1 ",
"  c None",
". c #3F2631",
"X c #763B36",
"o c #262B44",
"O c #BD6C4A",
"+ c #E19A65",
"@ c #8B9BB4",
"# c #F7C282",
"$ c #C0CBDC",
/* pixels */
"                                                                ",
"                                                                ",
"                                                                ",
"                                                                ",
"                ................................                ",
"                ................................                ",
"                ................................                ",
"                ................................                ",
"            ........................................            ",
"            ........................................            ",
"            ........................................            ",
"            ........................................            ",
"        ............XXXXOOOOOOOOOOOOOOOOXXXX............        ",
"        ............XXXXOOOOOOOOOOOOOOOOXXXX............        ",
"        ............XXXXOOOOOOOOOOOOOOOOXXXX............        ",
"        ............XXXXOOOOOOOOOOOOOOOOXXXX............        ",
"        ........XXXXOOOOOOOOOOOOOOOOOOOOOOOOXXXX........        ",
"        ........XXXXOOOOOOOOOOOOOOOOOOOOOOOOXXXX........        ",
"        ........XXXXOOOOOOOOOOOOOOOOOOOOOOOOXXXX........        ",
"        ........XXXXOOOOOOOOOOOOOOOOOOOOOOOOXXXX........        ",
"        ........OOOOOOOO####OOOOOOOOOOOO####OOOO........        ",
"        ........OOOOOOOO####OOOOOOOOOOOO####OOOO........        ",
"        ........OOOOOOOO####OOOOOOOOOOOO####OOOO........        ",
"        ........OOOOOOOO####OOOOOOOOOOOO####OOOO........        ",
"        ........OOOO############################........        ",
"        ........OOOO############################........        ",
"        ........OOOO############################........        ",
"        ........OOOO############################........        ",
"        ........########oooo############oooo####........        ",
"        ........########oooo############oooo####........        ",
"        ........########oooo############oooo####........        ",
"        ........########oooo############oooo####........        ",
"        ........++++####oooo++++++++++++oooo++++........        ",
"        ........++++####oooo++++++++++++oooo++++........        ",
"        ........++++####oooo++++++++++++oooo++++........        ",
"        ........++++####oooo++++++++++++oooo++++........        ",
"        ............++++++++############++++............        ",
"        ............++++++++############++++............        ",
"        ............++++++++############++++............        ",
"        ............++++++++############++++............        ",
"    ............$$$$@@@@OOOOOOOOOOOOOOOO@@@@$$$$............    ",
"    ............$$$$@@@@OOOOOOOOOOOOOOOO@@@@$$$$............    ",
"    ............$$$$@@@@OOOOOOOOOOOOOOOO@@@@$$$$............    ",
"    ............$$$$@@@@OOOOOOOOOOOOOOOO@@@@$$$$............    ",
"............$$$$$$$$$$$$$$$$$$$$$$$$$$$$$$$$$$$$$$$$............",
"............$$$$$$$$$$$$$$$$$$$$$$$$$$$$$$$$$$$$$$$$............",
"............$$$$$$$$$$$$$$$$$$$$$$$$$$$$$$$$$$$$$$$$............",
"............$$$$$$$$$$$$$$$$$$$$$$$$$$$$$$$$$$$$$$$$............",
"........########@@@@$$$$$$$$$$$$$$$$$$$$$$$$@@@@########........",
"........########@@@@$$$$$$$$$$$$$$$$$$$$$$$$@@@@########........",
"........########@@@@$$$$$$$$$$$$$$$$$$$$$$$$@@@@########........",
"........########@@@@$$$$$$$$$$$$$$$$$$$$$$$$@@@@########........",
"........########....OOOOOOOOOOOOOOOOOOOOOOOO....########........",
"........########....OOOOOOOOOOOOOOOOOOOOOOOO....########........",
"........########....OOOOOOOOOOOOOOOOOOOOOOOO....########........",
"........########....OOOOOOOOOOOOOOOOOOOOOOOO....########........",
"....................XXXXXXXX........XXXXXXXX....................",
"....................XXXXXXXX........XXXXXXXX....................",
"....................XXXXXXXX........XXXXXXXX....................",
"....................XXXXXXXX........XXXXXXXX....................",
"    ................OOOOOOOO........OOOOOOOO................    ",
"    ................OOOOOOOO........OOOOOOOO................    ",
"    ................OOOOOOOO........OOOOOOOO................    ",
"    ................OOOOOOOO........OOOOOOOO................    "
};
